#!OML:ASF X:\für Bonn\!DataBase\2005_08_12_Daniel\c3d\Daniel.ASF
:FULLY-SPECIFIED
:DEGREES
149
root 0.24302 16.691 -1.03303 43.841 -87.0999 -54.5618
lowerback 30.1142 -3.01714 5.18743
upperback 1.09862 -2.67761 -1.91791
thorax -14.9628 -1.69636 -3.81525
lowerneck 5.47923 1.89715 -2.90021
upperneck 2.82507 2.29477 0.773561
head -0.0798333 1.08926 0.67341
rclavicle 8.79622e-015 1.07344e-014
rhumerus 59.1896 3.4967 -97.5118
rradius 7.80799
rwrist 58.284
rhand -18.2563 5.20555
rfingers 7.12502
rthumb 8.02296 -24.6222
lclavicle 8.79622e-015 1.07344e-014
lhumerus 61.4459 8.46426 108.343
lradius 11.1683
lwrist -81.5475
lhand -15.1697 0.558942
lfingers 7.12502
lthumb 11.0011 30.2507
rfemur -8.25722 -8.0058 15.7687
rtibia 45.2865
rfoot -17.3681 3.00123
rtoes -11.9342
lfemur -14.4561 1.05579 -10.3376
ltibia 49.5247
lfoot -23.6988 -3.15478
ltoes -0.212446
150
root 0.212701 16.7687 -1.03665 42.904 -87.138 -53.3527
lowerback 29.4812 -2.97082 5.09311
upperback 0.939655 -2.66564 -1.9157
thorax -14.8565 -1.68218 -3.78569
lowerneck 5.4786 1.92719 -2.92191
upperneck 3.16104 2.32719 0.848861
head 0.0212681 1.0996 0.701059
rclavicle -1.14798e-014 -7.55382e-015
rhumerus 58.946 3.46102 -97.6295
rradius 7.67438
rwrist 58.2765
rhand -18.2279 5.35233
rfingers 7.12502
rthumb 8.05034 -24.4743
lclavicle -1.14798e-014 -7.55382e-015
lhumerus 61.511 9.04692 109.461
lradius 10.7629
lwrist -82.4845
lhand -15.2416 0.589428
lfingers 7.12502
lthumb 10.9317 30.2848
rfemur -7.26821 -6.90803 16.1388
rtibia 43.3319
rfoot -17.7526 1.72812
rtoes -12.1528
lfemur -13.7065 -0.168549 -10.7431
ltibia 48.0274
lfoot -23.8734 -1.79854
ltoes -0.367678
151
root 0.182574 16.8369 -1.03958 41.435 -87.1963 -51.6386
lowerback 28.9017 -2.93249 4.96519
upperback 0.778477 -2.67326 -1.91869
thorax -14.7745 -1.67534 -3.73373
lowerneck 5.41328 1.96731 -2.95164
upperneck 3.52829 2.37427 0.923008
head 0.142004 1.1171 0.730447
rclavicle -4.67144e-015 -1.98785e-015
rhumerus 58.742 3.45982 -97.7551
rradius 7.55409
rwrist 58.3904
rhand -18.1457 5.4276
rfingers 7.12502
rthumb 8.12971 -24.396
lclavicle -4.67144e-015 -1.98785e-015
lhumerus 61.4723 9.42725 110.089
lradius 10.5379
lwrist -82.8691
lhand -15.1398 0.669177
lfingers 7.12502
lthumb 11.03 30.3594
rfemur -6.28847 -5.75872 16.467
rtibia 41.4596
rfoot -18.1681 0.434905
rtoes -12.363
lfemur -12.9691 -1.42209 -11.1864
ltibia 46.615
lfoot -24.0871 -0.4209
ltoes -0.378569
152
root 0.153921 16.8961 -1.0432 40.1004 -87.2361 -50.0669
lowerback 28.3729 -2.89666 4.86519
upperback 0.59759 -2.67256 -1.93099
thorax -14.7366 -1.66814 -3.70885
lowerneck 5.34707 1.98358 -2.89106
upperneck 3.89903 2.39448 0.942687
head 0.266296 1.12233 0.728694
rclavicle -1.0138e-014 3.97569e-015
rhumerus 58.5871 3.44176 -97.9025
rradius 7.35872
rwrist 58.6611
rhand -18.1043 5.42991
rfingers 7.12502
rthumb 8.16972 -24.3922
lclavicle -1.0138e-014 3.97569e-015
lhumerus 61.3336 9.65109 110.43
lradius 10.4371
lwrist -82.9844
lhand -14.9426 0.717924
lfingers 7.12502
lthumb 11.2201 30.3979
rfemur -5.34802 -4.59974 16.8178
rtibia 39.6703
rfoot -18.644 -0.837166
rtoes -12.6025
lfemur -12.2748 -2.68637 -11.5991
ltibia 45.3005
lfoot -24.3405 0.935213
ltoes -0.47218
153
root 0.124934 16.9486 -1.04642 38.9684 -87.2945 -48.7038
lowerback 27.8151 -2.85467 4.74296
upperback 0.461277 -2.67195 -1.93081
thorax -14.628 -1.65776 -3.65886
lowerneck 5.19584 2.01079 -2.87534
upperneck 4.24757 2.43053 0.978244
head 0.396494 1.13596 0.740289
rclavicle -2.5842e-015 -2.18663e-014
rhumerus 58.5996 3.4724 -98.0359
rradius 7.03084
rwrist 59.0523
rhand -18.1051 5.36962
rfingers 7.12502
rthumb 8.16886 -24.4525
lclavicle -2.5842e-015 -2.18663e-014
lhumerus 61.2432 9.79099 110.592
lradius 10.3819
lwrist -82.944
lhand -14.7737 0.856098
lfingers 7.12502
lthumb 11.383 30.5271
rfemur -4.44778 -3.44118 17.144
rtibia 37.9707
rfoot -19.1688 -2.04589
rtoes -12.9335
lfemur -11.6179 -3.98 -12.0242
ltibia 44.0828
lfoot -24.6631 2.31734
ltoes -0.515606
154
root 0.0975537 16.9933 -1.04898 37.7548 -87.3403 -47.2942
lowerback 27.2703 -2.80849 4.64723
upperback 0.359274 -2.65844 -1.93624
thorax -14.4828 -1.64309 -3.63399
lowerneck 4.97607 2.00979 -2.80356
upperneck 4.61265 2.43526 0.955664
head 0.545048 1.135 0.726285
rclavicle 1.74931e-014 -1.98785e-015
rhumerus 58.8082 3.48552 -98.157
rradius 6.45688
rwrist 59.4707
rhand -18.2476 5.27139
rfingers 7.12502
rthumb 8.03132 -24.556
lclavicle 1.74931e-014 -1.98785e-015
lhumerus 61.212 9.9244 110.903
lradius 10.3481
lwrist -83.1312
lhand -14.6556 0.925028
lfingers 7.12502
lthumb 11.4969 30.5897
rfemur -3.56728 -2.32672 17.4598
rtibia 36.3691
rfoot -19.6767 -3.22255
rtoes -13.262
lfemur -10.9776 -5.30135 -12.4383
ltibia 42.9697
lfoot -25.0405 3.66336
ltoes -0.507393
